# xmcd CD database file
#
# Track frame offsets:
#	150
#	17795
#	42189
#	65747
#	89089
#	111377
#	138471
#	160597
#	183183
#	197074
#	215906
#	237438
#
# Disc length: 3422 seconds
#
# Revision: 0
# Processed by: cddbd v1.5PL3 Copyright (c) Steve Scherf et al.
# Submitted via: CDex 1.51
#
DISCID=b30d5c0c
DTITLE=Septeto La Passion - Homenaje a la Casa de la Trova (di Santiago di Cuba)
DYEAR=2004
DGENRE=Salsa
TTITLE0=Besos Discretos
TTITLE1=Bilongo
TTITLE2=Chan Chan
TTITLE3=Yolanda
TTITLE4=Maria Cristina
TTITLE5=Almendra
TTITLE6=Son a la Casa de la Trova
TTITLE7=Rico Vacilon
TTITLE8=Anos
TTITLE9=Hasta Siempre Comandante
TTITLE10=El traguito
TTITLE11=Maria del Carmen y Merengue
EXTD=YEAR: 2004
EXTT0=
EXTT1=
EXTT2=
EXTT3=
EXTT4=
EXTT5=
EXTT6=
EXTT7=
EXTT8=
EXTT9=
EXTT10=
EXTT11=
PLAYORDER=
